<svg xmlns="http://www.w3.org/2000/svg" viewBox="0 0 64 64" fill="none">
  <rect width="64" height="64" rx="18" fill="#F7F6F1"/>
  <rect x="10" y="10" width="44" height="44" rx="16" fill="#2F6A46" fill-opacity=".12"/>
  <path d="M16 39c4.1-3.4 9-5.1 14.5-5.1 5.2 0 9.7 1.3 13.5 4" stroke="#2F6A46" stroke-width="3.8" stroke-linecap="round"/>
  <path d="M16 47c4.2-2.6 8.9-4 14.3-4 5.5 0 10.4 1.4 14.7 4" stroke="#2F6A46" stroke-width="3.8" stroke-linecap="round"/>
  <path d="M32 18v18" stroke="#2F6A46" stroke-width="3.8" stroke-linecap="round"/>
  <path d="M32 22c0-3.8 3-6.8 6.8-6.8-.4 4-3 6.9-6.8 8.2" stroke="#2F6A46" stroke-width="3.8" stroke-linecap="round" stroke-linejoin="round"/>
  <path d="M32 26.5c0-3.1-2.4-5.4-5.4-5.4.2 3.3 2.3 5.7 5.4 6.8" stroke="#2F6A46" stroke-width="3.8" stroke-linecap="round" stroke-linejoin="round"/>
</svg>
